<?xml version="1.0" encoding="UTF-8"?>
<svg id="Layer_2" data-name="Layer 2" xmlns="http://www.w3.org/2000/svg" viewBox="0 0 731.71 731.74">
  <defs>
    <style>
      .cls-1 {
        fill: #000;
        stroke-width: 0px;
      }
    </style>
  </defs>
  <g id="Layer_1-2" data-name="Layer 1">
    <g id="SvgjsG1147">
      <g>
        <path class="cls-1" d="M569.54,379.08c-1.89,52.87-15.72,104.06-40.43,151.43,22.94,10.01,45.04,22.16,66.05,36.39l20.75,13.83c47.16-54.64,76.78-124.77,80.02-201.65h-126.39Z"/>
        <path class="cls-1" d="M579.47,590.26c-20.44-13.85-41.98-25.55-64.34-35.09-22.42,36.15-51.37,69.7-86.48,99.51-2.64,2.24-5.89,3.35-9.11,3.35-3.98,0-7.95-1.69-10.72-4.96-5.03-5.93-4.3-14.81,1.61-19.83,31.34-26.6,57.43-56.35,77.9-88.32-34.78-11.82-71.22-18.59-108.41-19.94v116.63c0,7.77-6.31,14.07-14.07,14.07s-14.07-6.3-14.07-14.07v-116.44c-36.7,1.36-72.9,7.89-107.47,19.51,20.12,31.08,45.51,60.05,75.92,86.03,5.91,5.04,6.61,13.94,1.56,19.84-2.78,3.25-6.73,4.93-10.71,4.93-3.23,0-6.48-1.11-9.13-3.37-34.2-29.21-62.56-61.98-84.62-97.27-15.38,6.51-30.35,14.03-44.8,22.55-6.69,3.93-15.33,1.72-19.27-4.97-3.95-6.68-1.72-15.33,4.97-19.27,14.57-8.6,29.67-16.15,45.11-22.84-24.91-47.29-38.99-98.42-41.12-151.25h-13.59c-7.77,0-14.07-6.31-14.07-14.07s6.3-14.07,14.07-14.07h13.53c.27-6.77.67-13.53,1.34-20.23.76-7.73,7.66-13.38,15.38-12.63,7.74.76,13.38,7.65,12.63,15.39-.57,5.78-.95,11.62-1.2,17.46h161.47v-117.76c-15.98-.54-31.96-2-47.69-4.39-7.68-1.17-12.97-8.34-11.81-16.03,1.17-7.68,8.33-12.94,16.03-11.8,14.33,2.18,28.9,3.54,43.47,4.07v-55.54c0-7.77,6.3-14.07,14.07-14.07s14.07,6.3,14.07,14.07v55.55c36.54-1.33,72.35-7.9,106.58-19.34-16.85-25.86-37.34-50.22-61.3-72.54-5.69-5.29-6.01-14.2-.71-19.89,5.3-5.68,14.2-5.98,19.88-.71,27.27,25.4,50.3,53.33,68.99,83.01,22.96-9.66,45.07-21.58,66-35.76l16.9-11.26c-30.69-29.95-67.13-54.06-107.56-70.35,83.6-36.43,154.62-41.52,190.48-5.68,34.57,34.58,31.95,104.95-5.88,191.6-13.76-34.9-33.37-66.85-57.48-94.79l-20.73,13.82c-21.42,14.51-43.98,26.85-67.4,36.95,25.11,47.26,39.42,98.37,41.8,150.83h126.37c-.98-23.25-4.24-45.92-9.81-67.7,55.88-111.69,60.75-202.89,13.04-250.62-49.13-49.12-142.97-40.94-250.04,12.4-26.67-6.96-54.63-10.68-83.44-10.68-91.13,0-176,36.26-239.01,102.11-5.37,5.61-5.17,14.52.44,19.9s14.53,5.18,19.9-.45c57.64-60.24,135.29-93.42,218.67-93.42,15.26,0,30.26,1.16,44.94,3.36-63.23,36.78-129.62,88.06-193.14,151.58-14.27,14.28-28.22,29.03-41.47,43.85C16.94,438.99-43.33,623.12,32.63,699.04c21.84,21.86,52.74,32.7,90.55,32.7,45.11,0,100.09-15.58,161.13-46.27,26.16,6.67,53.43,10.2,81.3,10.2,89.71,0,171.14-35.96,230.78-94.15l-16.92-11.26ZM52.52,679.14c-35.55-35.55-30.77-106.94,6.02-191.34,34.26,85.58,102.75,152.07,186.62,185.03-87.15,38.28-157.91,41.08-192.65,6.31Z"/>
        <path class="cls-1" d="M379.93,496.8c42.21,1.44,83.54,9.33,122.82,23.3,23.49-44.13,36.72-91.83,38.63-141.03h-161.45v117.73Z"/>
        <path class="cls-1" d="M351.77,497.01v-117.94h-161.41c2.16,49.17,15.62,96.81,39.33,140.86,39.15-13.81,80.32-21.48,122.08-22.93Z"/>
        <path class="cls-1" d="M379.93,233.16v117.77h161.39c-2.42-48.84-16.18-96.45-40.1-140.5-38.81,13.62-79.62,21.31-121.29,22.73Z"/>
      </g>
    </g>
  </g>
</svg>