
        <svg xmlns="http://www.w3.org/2000/svg" xmlns:xlink="http://www.w3.org/1999/xlink" version="1.1" width="3146.3414634146343" 
        height="1170.7317073170732" viewBox="0 0 3146.3414634146343 1170.7317073170732">
			
			<g transform="scale(7.317073170731708) translate(10, 10)">
				<defs id="SvgjsDefs1145"></defs><g id="SvgjsG1146" featureKey="rootContainer" transform="matrix(1,0,0,1,0,0)" fill="#017c01"><rect xmlns="http://www.w3.org/2000/svg" width="410" height="140" rx="10" ry="10"></rect></g><g id="SvgjsG1147" featureKey="symbolFeature-0" transform="matrix(1.1111906132064435,0,0,1.1111906132064435,14.921852878471327,19.438877119470284)" fill="#fcec83"><g xmlns="http://www.w3.org/2000/svg"><path d="M74.619,51.628c-0.232,6.502-1.934,12.799-4.973,18.624c2.821,1.231,5.54,2.725,8.124,4.476l2.552,1.701   c5.8-6.72,9.443-15.345,9.842-24.801H74.619z"></path><path d="M75.84,77.601c-2.514-1.703-5.163-3.143-7.913-4.316c-2.758,4.446-6.318,8.572-10.636,12.239   c-0.325,0.276-0.724,0.412-1.12,0.412c-0.49,0-0.978-0.208-1.319-0.61c-0.619-0.729-0.529-1.821,0.198-2.439   c3.854-3.272,7.063-6.931,9.581-10.862c-4.278-1.454-8.76-2.286-13.333-2.453v14.345c0,0.956-0.776,1.731-1.731,1.731   c-0.956,0-1.731-0.775-1.731-1.731V69.596c-4.514,0.167-8.966,0.97-13.218,2.4c2.474,3.822,5.597,7.386,9.337,10.581   c0.727,0.62,0.813,1.714,0.192,2.44c-0.342,0.4-0.828,0.606-1.317,0.606c-0.397,0-0.797-0.137-1.123-0.415   c-4.206-3.593-7.694-7.623-10.408-11.963c-1.891,0.801-3.733,1.725-5.51,2.773c-0.823,0.483-1.885,0.212-2.37-0.611   c-0.486-0.822-0.212-1.885,0.611-2.37c1.792-1.058,3.649-1.986,5.548-2.809c-3.064-5.816-4.795-12.105-5.057-18.602h-1.671   c-0.956,0-1.73-0.776-1.73-1.731c0-0.956,0.775-1.73,1.73-1.73h1.664c0.033-0.833,0.083-1.664,0.165-2.488   c0.094-0.951,0.942-1.646,1.892-1.553c0.952,0.094,1.646,0.941,1.553,1.893c-0.07,0.711-0.117,1.429-0.148,2.148h19.86V33.681   c-1.965-0.067-3.931-0.246-5.865-0.54c-0.945-0.144-1.595-1.026-1.452-1.971c0.144-0.945,1.024-1.591,1.971-1.451   c1.763,0.268,3.554,0.435,5.346,0.5v-6.831c0-0.956,0.775-1.731,1.731-1.731c0.955,0,1.731,0.775,1.731,1.731v6.832   c4.494-0.164,8.899-0.972,13.108-2.379c-2.072-3.18-4.592-6.177-7.539-8.922c-0.7-0.651-0.739-1.747-0.087-2.446   c0.652-0.699,1.747-0.736,2.445-0.087c3.354,3.124,6.186,6.559,8.485,10.21c2.824-1.188,5.543-2.654,8.117-4.398l2.078-1.385   c-3.775-3.684-8.256-6.649-13.229-8.652c10.282-4.481,19.017-5.107,23.427-0.698c4.252,4.253,3.929,12.908-0.723,23.565   c-1.692-4.292-4.104-8.222-7.07-11.658L77.76,25.07c-2.634,1.784-5.409,3.302-8.29,4.545c3.088,5.813,4.848,12.099,5.141,18.551   h15.543c-0.121-2.859-0.522-5.648-1.206-8.327c6.873-13.737,7.472-24.954,1.604-30.824C84.51,2.974,72.968,3.98,59.799,10.54   c-3.28-0.856-6.719-1.314-10.263-1.314c-11.208,0-21.647,4.46-29.396,12.559c-0.661,0.69-0.636,1.786,0.054,2.447   s1.787,0.637,2.447-0.055c7.089-7.409,16.64-11.49,26.895-11.49c1.877,0,3.722,0.143,5.527,0.413   c-7.777,4.524-15.942,10.83-23.755,18.643c-1.755,1.756-3.471,3.57-5.101,5.393C6.653,58.996-0.759,81.643,8.583,90.98   c2.686,2.688,6.487,4.022,11.137,4.022c5.548,0,12.31-1.916,19.818-5.691c3.218,0.82,6.571,1.255,9.999,1.255   c11.034,0,21.049-4.423,28.384-11.58L75.84,77.601z M11.03,88.533C6.658,84.161,7.245,75.38,11.771,65   c4.214,10.526,12.637,18.703,22.953,22.757C24.005,92.465,15.303,92.809,11.03,88.533z"></path><path d="M51.298,66.107c5.192,0.177,10.275,1.148,15.106,2.866c2.889-5.428,4.516-11.294,4.751-17.346H51.298V66.107z"></path><path d="M47.835,66.133V51.628H27.983c0.266,6.047,1.921,11.907,4.837,17.325C37.635,67.254,42.699,66.311,47.835,66.133z"></path><path d="M51.298,33.681v14.485h19.849c-0.298-6.007-1.99-11.863-4.932-17.28C61.442,32.561,56.423,33.507,51.298,33.681z"></path></g></g><g id="SvgjsG1148" featureKey="nameFeature-0" transform="matrix(1.2594050863700224,0,0,1.2594050863700224,135.91725900176004,19.55396599606267)" fill="#ffffff"><path d="M4.3555 27.266 c1.2695 -5.4492 2.5391 -10.918 3.8086 -16.367 l11.719 0 c7.0117 0 11.914 3.6328 8.6914 11.582 c-0.82031 1.9727 -1.9141 3.5547 -3.1641 4.7852 l1.7773 0 c-3.0664 2.9492 -7.3047 3.9453 -12.188 3.9453 l-2.0313 8.7695 l-9.7266 0 l2.9297 -12.715 l-1.8164 0 z M16.211 18.145 c-0.41016 1.9141 -0.87891 3.8672 -1.3086 5.8594 c4.8633 -0.25391 6.6797 -5.8594 1.3086 -5.8594 z M56.83621875 26.719 l-0.50781 2.4414 c-1.7773 7.8125 -7.4219 11.445 -15.215 11.445 c-7.8516 0 -11.777 -3.75 -10.039 -11.426 l0.56641 -2.4609 l-1.7578 0 l3.6133 -15.957 l9.9023 0 l-3.6328 15.957 l1.7578 0 l-0.50781 2.0508 c-0.39063 1.7383 -0.83984 4.4727 1.7773 4.4727 c2.4219 0 3.3008 -2.4805 3.7695 -4.4727 l0.46875 -2.0508 l-1.8164 0 l3.6328 -15.957 l9.9023 0 l-3.6328 15.957 l1.7188 0 z M60.6836375 26.719 l-1.7773 0 l3.6328 -15.957 c3.3984 0 9.5313 -0.33203 14.375 0.3125 c4.2773 0.625 8.418 2.207 7.6953 7.3438 c-0.41016 3.1055 -2.793 6.2891 -5.3711 8.3008 l1.7578 0 c-0.46875 0.35156 -0.9375 0.72266 -1.4453 0.97656 l6.6797 12.383 l-11.719 0 l-4.8828 -9.5508 l-2.168 9.5508 l-9.8438 0 z M70.7619375 17.988 l-1.1914 5.0391 c4.707 0 7.3438 -5.0391 1.1914 -5.0391 z M89.72655625 27.344 l-1.9922 0 l3.8281 -16.484 l20.918 0 l-1.6797 7.4023 l-11.152 0 l-0.58594 2.5 l10.254 0 l-1.5039 6.582 l1.9922 0 l-0.17578 0.78125 l-10.273 0 l-1.0352 4.5703 l11.113 0 l-1.6797 7.3828 l-20.957 0 z M148.32028125 26.719 l-6.2891 13.359 l-10.039 0 l-0.3125 -10.918 c-1.7383 3.5742 -3.5547 7.2656 -5.1953 10.918 l-10.059 0 l-0.19531 -13.359 l-1.7773 0 l-0.29297 -15.957 l10.195 0 l-0.27344 11.543 c1.7773 -3.8086 3.6328 -7.7148 5.4688 -11.543 l9.3945 0 l0 11.543 c1.7578 -3.8086 3.418 -7.7148 5.1367 -11.543 l10 0 l-7.5391 15.957 l1.7773 0 z M154.14061875 27.344 l-1.9922 0 l3.8281 -16.484 l20.918 0 l-1.6797 7.4023 l-11.152 0 l-0.58594 2.5 l10.254 0 l-1.5039 6.582 l1.9922 0 l-0.17578 0.78125 l-10.273 0 l-1.0352 4.5703 l11.113 0 l-1.6797 7.3828 l-20.957 0 z M201.54334375 30.664099999999998 c-1.0742 4.4141 -4.7852 7.6172 -9.1016 8.8477 c-1.3672 0.35156 -3.0664 0.48828 -5.1367 0.48828 l-12.031 0 l2.9297 -12.734 l-2.2266 0 l3.8086 -16.406 c3.3789 0 13.633 -0.64453 17.09 0.625 c2.9297 1.1523 4.3164 3.5742 3.5938 6.7383 c-0.54688 2.3633 -1.9727 4.1992 -3.8867 5.625 c1.6016 0.80078 2.5391 2.0117 2.8516 3.418 l2.1484 0 c0.25391 1.0938 0.19531 2.1484 -0.039063 3.3984 z M191.54334375 30.5469 c0.625 -2.7148 -2.0508 -2.1875 -3.8086 -2.1875 l-1.0547 4.5117 c2.168 0 4.2969 0.25391 4.8633 -2.3242 z M190.37134375 20 c0.44922 -1.8164 -1.0547 -2.0313 -2.4805 -2.0313 l-0.74219 3.5352 c1.0938 0.097656 2.9297 -0.058594 3.2227 -1.5039 z"></path></g><g id="SvgjsG1149" featureKey="sloganFeature-0" transform="matrix(1.0138774632487597,0,0,1.0138774632487597,138.0939096487452,84.28813227623118)" fill="#ffffff"><path d="M9.38 14.780000000000001 c-0.28 0.58 -0.68 1.02 -1.24 1.28 l1.68 3.7 c0.06 0.12 -0.02 0.24 -0.14 0.24 l-2.46 0 c-0.08 0 -0.12 -0.04 -0.14 -0.1 l-1.56 -3.4 l-1.02 0 l0 3.32 c0 0.1 -0.08 0.18 -0.18 0.18 l-2.3 0 c-0.08 0 -0.14 -0.08 -0.14 -0.18 l0 -12.84 c0 -0.1 0.06 -0.18 0.14 -0.18 l4.16 0 c2.22 0 3.56 1.26 3.56 3.6 l0 2.52 c0 0.7 -0.12 1.36 -0.36 1.86 z M7.12 12.3 l0 -1.3 c0 -1.4 -0.52 -1.54 -2.04 -1.54 l-0.58 0 l0 4.42 l0.58 0 c1.26 0 2 -0.02 2.04 -1.58 z M9.64 20.88 l-0.62 -0.62 l0.56 0 l0.62 0.62 l-0.56 0 z M4.74 17.1 l0 -0.34 l0.2 0 l0.64 0.62 l-0.2 0 l0 0.34 z M8.52 20.88 l-0.62 -0.62 l0.54 0 l0.64 0.62 l-0.56 0 z M5.38 18.86 l-0.64 -0.64 l0 -0.54 l0.64 0.62 l0 0.56 z M5.38 19.98 l-0.64 -0.62 l0 -0.56 l0.64 0.62 l0 0.56 z M4.5 20.22 c0.12 -0.04 0.22 -0.16 0.24 -0.32 l0.64 0.66 l0 0.14 c0 0.1 -0.08 0.18 -0.18 0.18 l-0.06 0 z M4.02 20.88 l-0.62 -0.62 l0.58 0 l0.62 0.62 l-0.58 0 z M2.9 20.88 l-0.62 -0.62 l0.56 0 l0.64 0.62 l-0.58 0 z M10.58 10.6 l-0.58 -0.6 c-0.02 -0.22 -0.06 -0.44 -0.1 -0.64 l0.52 0.52 c0.08 0.22 0.12 0.48 0.16 0.72 z M10.62 11.76 l-0.62 -0.64 l0 -0.54 l0.62 0.62 l0 0.56 z M10.62 12.879999999999999 l-0.62 -0.62 l0 -0.56 l0.62 0.62 l0 0.56 z M9.98 13.36 c0.02 -0.14 0.02 -0.28 0.02 -0.44 l0 -0.1 l0.62 0.64 l0 0.34 l0 0.2 z M6.4 9.78 c0.14 0.08 0.24 0.18 0.34 0.34 z M6.38 10.32 l-0.56 0 l-0.62 -0.62 l0.54 0 z M10.5 15 l-0.68 -0.68 c0.02 -0.14 0.08 -0.3 0.1 -0.46 l0.66 0.66 c-0.04 0.16 -0.06 0.34 -0.08 0.48 z M5.38 10.46 l0 0.54 l-0.64 -0.62 l0 -0.58 z M9.48 15.1 c0.04 -0.08 0.06 -0.12 0.12 -0.22 c0.02 -0.06 0.04 -0.1 0.08 -0.16 l0.66 0.7 c-0.02 0.08 -0.04 0.16 -0.1 0.24 c-0.02 0.04 -0.04 0.1 -0.06 0.14 z M5.38 11.56 l0 0.56 l-0.64 -0.62 l0 -0.58 z M9.7 16.46 l-0.7 -0.7 c0.1 -0.1 0.18 -0.2 0.24 -0.3 l0.7 0.7 c-0.06 0.1 -0.14 0.2 -0.24 0.3 z M5.38 12.68 l0 0.58 l-0.64 -0.64 l0 -0.56 z M8.62 16.5 l-0.14 -0.32 c0.06 -0.06 0.14 -0.1 0.22 -0.18 l0.7 0.7 c-0.1 0.08 -0.22 0.16 -0.36 0.22 z M9.94 18.92 l-0.36 -0.36 l-0.48 -1.04 l0.38 0.38 z M4.74 13.620000000000001 l0 -0.44 l0.46 0.44 l-0.12 0 l-0.34 0 z M10 20.12 c0.12 -0.12 0.12 -0.3 0.08 -0.46 l-0.04 -0.06 l0.36 0.36 l0.32 0.66 c0.02 0.08 0 0.14 -0.02 0.18 z M16.0615 20 c-0.1 0 -0.16 -0.08 -0.16 -0.18 l0 -12.84 c0 -0.1 0.06 -0.18 0.16 -0.18 l6.8 0 c0.1 0 0.18 0.08 0.18 0.18 l0 2.14 c0 0.1 -0.08 0.18 -0.18 0.18 l-4.32 0 l0 2.72 l3.36 0 c0.1 0 0.16 0.08 0.16 0.18 l0 2.18 c0 0.1 -0.06 0.18 -0.16 0.18 l-3.36 0 l0 2.94 l4.32 0 c0.1 0 0.18 0.08 0.18 0.18 l0 2.14 c0 0.1 -0.08 0.18 -0.18 0.18 l-6.8 0 z M22.3215 14.36 l0.62 0.62 l0 0.28 c0 0.06 -0.08 0.14 -0.12 0.14 l-0.7 -0.68 c0.12 -0.06 0.2 -0.2 0.2 -0.36 z M23.301499999999997 19.82 l0.62 0.64 l0 0.24 c0 0.08 -0.08 0.16 -0.16 0.18 l-0.66 -0.7 c0.12 -0.06 0.2 -0.2 0.2 -0.36 z M22.3215 13.8 l0 -0.58 l0.62 0.64 l0 0.56 z M18.8015 10.28 l0 -0.58 l0.62 0.62 l0 0.58 z M19.441499999999998 15.42 l-0.62 -0.62 l0.58 0 l0.62 0.62 l-0.58 0 z M23.741500000000002 10.18 l-0.58 0 l-0.6 -0.62 l0.3 0 c0.08 0 0.16 -0.04 0.2 -0.06 z M18.7215 20.88 l-0.56 0 l-0.62 -0.62 l0.58 0 z M16.421499999999998 20.26 l0.58 0 l0.6 0.62 l-0.56 0 z M23.301499999999997 19.28 l0 -0.58 l0.62 0.62 l0 0.56 z M21.0615 14.8 l0.58 0 l0.6 0.62 l-0.54 0 z M22.0415 10.18 l-0.6 -0.62 l0.56 0 l0.62 0.62 l-0.58 0 z M22.0415 20.26 l0.56 0 l0.62 0.62 l-0.58 0 z M20.3215 9.56 l0.54 0 l0.64 0.62 l-0.58 0 z M21.4615 20.26 l0.64 0.62 l-0.58 0 l-0.6 -0.62 l0.54 0 z M20.5215 14.8 l0.6 0.62 l-0.56 0 l-0.62 -0.62 l0.58 0 z M19.8415 20.88 l-0.54 0 l-0.64 -0.62 l0.56 0 z M23.9215 9.22 l0 0.56 l-0.62 -0.62 l0 -0.56 z M19.4215 15.96 l0 0.54 l-0.62 -0.62 l0 -0.56 z M23.9215 8.1 l0 0.56 l-0.62 -0.64 l0 -0.54 z M19.2015 9.56 l0.54 0 l0.62 0.62 l-0.54 0 z M20.9615 20.88 l-0.54 0 l-0.62 -0.62 l0.54 0 z M18.8015 11.4 l0 -0.58 l0.62 0.64 l0 0.32 l-0.26 0 z M18.8015 17 l0 -0.54 l0.62 0.62 l0 0.18 l-0.38 0 z M22.3215 12.379999999999999 l0.58 0.58 c0.04 0.04 0.04 0.06 0.04 0.12 l0 0.22 l-0.62 -0.62 l0 -0.3 z M23.9215 18.52 l0 0.24 l-0.62 -0.6 l0 -0.3 l0.56 0.54 c0.06 0.06 0.06 0.08 0.06 0.12 z M31.542999999999996 6.92 c0.02 -0.06 0.06 -0.12 0.14 -0.12 l2.48 0 c0.08 0 0.12 0.06 0.14 0.12 l3.46 12.86 c0.02 0.12 -0.06 0.22 -0.18 0.22 l-2.28 0 c-0.06 0 -0.12 -0.04 -0.14 -0.12 l-0.78 -2.8 l-2.92 0 l-0.76 2.8 c-0.02 0.08 -0.06 0.12 -0.14 0.12 l-2.3 0 c-0.12 0 -0.2 -0.1 -0.18 -0.22 z M32.102999999999994 14.6 l1.66 0 l-0.86 -3.02 z M30.682999999999996 20.22 c0.16 -0.04 0.26 -0.14 0.28 -0.26 l0.68 0.64 l-0.06 0.16 c-0.02 0.06 -0.08 0.12 -0.14 0.12 l-0.1 0 z M38.583 20.82 c-0.02 0.04 -0.08 0.06 -0.12 0.06 l-0.4 0 l-0.62 -0.62 l0.14 0 c0.12 0 0.22 -0.06 0.3 -0.14 z M31.083 19.5 l0.12 -0.44 l0.66 0.66 l-0.12 0.44 z M31.302999999999997 18.6 l0.14 -0.42 l0.64 0.64 l-0.1 0.46 z M31.662999999999997 17.32 l0.1 0 l0.58 0.6 l-0.14 0.46 l-0.64 -0.66 z M36.303 20.26 l0.58 0 l0.62 0.62 l-0.56 0 z M32.882999999999996 17.96 l-0.6 -0.64 l0.56 0 l0.62 0.64 l-0.58 0 z M29.583 20.26 l0.58 0 l0.6 0.62 l-0.56 0 z M29.642999999999997 20.88 l-0.48 0 c-0.02 0 -0.08 -0.02 -0.1 -0.06 l-0.6 -0.56 l0.58 0 z M34.363 17.96 l-0.36 0 l-0.6 -0.64 l0.56 0 l0.32 0.34 z M36.462999999999994 12.52 l-0.52 -0.5 l-0.2 -0.76 l0.52 0.5 z M37.68299999999999 17.12 l-0.52 -0.52 l-0.2 -0.74 l0.52 0.5 z M38.083 18.66 l-0.5 -0.5 l-0.2 -0.78 l0.5 0.5 z M37.282999999999994 15.6 l-0.52 -0.52 l-0.2 -0.78 l0.5 0.52 z M34.903 8.18 l0.54 0.52 l0.2 0.78 l-0.5 -0.52 z M38.503 20.18 l-0.52 -0.5 l-0.2 -0.78 l0.5 0.52 z M36.863 14.059999999999999 l-0.5 -0.5 l-0.22 -0.78 l0.52 0.52 z M36.043 11 l-0.5 -0.52 l-0.2 -0.76 l0.5 0.5 z M32.483 14.18 l0.12 -0.46 l0.64 0.64 l-0.58 0 z M33.083 13.08 l0.22 0.78 l-0.56 -0.58 l0.1 -0.42 z M35.503 20.26 l0.26 0 l0.62 0.62 l-0.2 0 c-0.04 0 -0.1 -0.02 -0.12 -0.06 z M34.702999999999996 7.42 l-0.04 -0.2 l0.44 0.46 c0.04 0.02 0.08 0.08 0.08 0.12 l0.06 0.12 z M48.3445 6.800000000000001 c1.36 0 2.38 0.38 3.06 1.12 c0.6 0.66 0.9 1.64 0.9 2.84 l0 5.3 c0 2.42 -1.4 3.94 -3.96 3.94 l-5 0 c-0.1 0 -0.16 -0.08 -0.16 -0.18 l0 -12.84 c0 -0.1 0.06 -0.18 0.16 -0.18 l5 0 z M49.6845 15.46 l0 -4.1 c0 -1.26 -0.66 -2.06 -2.06 -2.06 l-1.8 0 l0 8.2 l1.8 0 c1.2 0 2.06 -0.78 2.06 -2.04 z M52.524499999999996 10.18 c-0.02 -0.22 -0.04 -0.42 -0.1 -0.66 l0.52 0.54 c0.08 0.22 0.14 0.46 0.16 0.72 z M53.1845 11.62 l0 0.34 l-0.64 -0.64 l0 -0.54 l0.6 0.6 c0.04 0.08 0.04 0.14 0.04 0.24 z M53.1845 12.5 l0 0.58 l-0.64 -0.62 l0 -0.56 z M53.1845 13.620000000000001 l0 0.58 l-0.64 -0.62 l0 -0.56 z M53.1845 14.76 l0 0.56 l-0.64 -0.62 l0 -0.58 z M48.5845 10.18 l-0.56 0 l-0.62 -0.62 l0.22 0 c0.12 0 0.26 0 0.36 0.02 z M46.284499999999994 9.56 l0.56 0 l0.6 0.62 l-0.54 0 z M53.1845 15.879999999999999 l0 0.54 l-0.64 -0.6 l0 -0.56 z M46.0845 10.48 l0 -0.58 l0.62 0.62 l0 0.56 z M53.1845 17 c-0.04 0.18 -0.04 0.36 -0.06 0.52 l-0.62 -0.64 c0.02 -0.16 0.02 -0.32 0.04 -0.5 z M46.0845 11.58 l0 -0.56 l0.62 0.64 l0 0.54 z M51.9045 18.56 c0.08 -0.14 0.14 -0.26 0.2 -0.38 l0.68 0.68 c-0.06 0.12 -0.14 0.26 -0.18 0.36 z M46.0845 12.7 l0 -0.54 l0.62 0.62 l0 0.54 z M46.0845 13.82 l0 -0.54 l0.62 0.62 l0 0.56 z M52.3445 19.56 c-0.06 0.1 -0.14 0.2 -0.24 0.3 l-0.7 -0.68 c0.02 -0.02 0.04 -0.06 0.04 -0.08 c0.08 -0.08 0.16 -0.14 0.24 -0.22 z M46.0845 14.96 l0 -0.56 l0.62 0.6 l0 0.58 z M50.784499999999994 19.66 c0.1 -0.08 0.22 -0.16 0.32 -0.24 l0.7 0.7 c-0.1 0.08 -0.22 0.16 -0.36 0.2 z M46.0845 16.08 l0 -0.56 l0.62 0.6 l0 0.58 z M51.0845 20.52 c-0.14 0.06 -0.28 0.1 -0.4 0.16 l-0.68 -0.68 c0.12 -0.04 0.24 -0.1 0.4 -0.14 z M46.0845 17.259999999999998 l0 -0.64 l0.6 0.64 l-0.6 0 z M50.2245 20.78 c-0.18 0.02 -0.32 0.04 -0.5 0.08 l-0.64 -0.66 c0.16 -0.02 0.32 -0.04 0.46 -0.08 z M48.3445 20.26 l0.2 0 l0.64 0.62 l-0.56 0 l-0.62 -0.62 l0.34 0 z M46.884499999999996 20.26 l0.56 0 l0.6 0.62 l-0.54 0 z M46.384499999999996 20.88 l-0.64 -0.62 l0.58 0 l0.6 0.62 l-0.54 0 z M44.6245 20.26 l0.58 0 l0.6 0.62 l-0.56 0 z M43.524499999999996 20.26 l0.56 0 l0.62 0.62 l-0.5 0 c-0.06 0 -0.08 -0.02 -0.1 -0.06 c-0.06 -0.04 -0.32 -0.32 -0.58 -0.56 z M53.0445 18 c-0.02 0.18 -0.04 0.3 -0.1 0.46 l-0.66 -0.68 c0.04 -0.12 0.1 -0.28 0.12 -0.42 z M61.666 10.26 l1.7 -3.36 c0.06 -0.1 0.08 -0.1 0.16 -0.1 l2.24 0 c0.12 0 0.2 0.12 0.16 0.22 l-2.9 6.74 l0 6.06 c0 0.1 -0.08 0.18 -0.18 0.18 l-2.36 0 c-0.06 0 -0.14 -0.08 -0.14 -0.18 l0 -6.06 l-2.98 -6.7 c-0.04 -0.14 0.02 -0.26 0.16 -0.26 l2.24 0 c0.08 0 0.1 0 0.16 0.1 z M66.166 7.119999999999999 c0.2 0.2 0.48 0.46 0.6 0.58 c0.06 0.06 0.08 0.12 0.06 0.2 l-0.14 0.28 l-0.66 -0.68 l0.14 -0.38 l0 0 z M65.666 8.3 l0.18 -0.4 l0.68 0.68 l-0.18 0.4 z M66.166 9.36 l-0.18 0.4 l-0.66 -0.68 l0.16 -0.4 z M65.846 10.16 l-0.18 0.36 l-0.68 -0.66 l0.18 -0.4 z M65.486 10.92 l-0.16 0.38 l-0.68 -0.68 l0.18 -0.36 z M60.966 8.08 l-0.28 -0.28 l-0.16 -0.34 l0.2 0.2 c0.06 0.06 0.12 0.12 0.14 0.16 z M65.146 11.7 l-0.16 0.4 l-0.66 -0.68 l0.14 -0.4 z M63.966 12.2 l0.18 -0.4 l0.68 0.68 l-0.18 0.4 z M61.746 9.58 l-0.08 0.12 l-0.38 -0.74 l0.28 0.3 z M64.466 13.280000000000001 l-0.18 0.38 l-0.66 -0.68 l0.16 -0.38 z M63.286 13.780000000000001 l0.18 -0.4 l0.68 0.68 l-0.18 0.4 z M63.266 14.879999999999999 l0 -0.58 l0.62 0.62 l0 0.56 z M63.266 16 l0 -0.58 l0.62 0.64 l0 0.54 z M63.266 17.12 l0 -0.56 l0.62 0.62 l0 0.54 z M63.266 18.22 l0 -0.54 l0.62 0.62 l0 0.56 z M63.266 19.36 l0 -0.56 l0.62 0.62 l0 0.56 z M63.025999999999996 20.22 c0.12 -0.04 0.22 -0.16 0.24 -0.32 l0.62 0.62 l0 0.18 c0 0.1 -0.06 0.18 -0.16 0.18 l-0.06 0 z M61.926 20.26 l0.54 0 l0.62 0.62 l-0.54 0 z M61.426 20.88 l-0.64 -0.62 l0.58 0 l0.6 0.62 l-0.54 0 z M72.1875 16.66 c0.94 0 1.78 0.72 1.78 1.7 c0 0.16 -0.06 0.36 -0.1 0.5 l-1.14 2.96 c-0.02 0.08 -0.1 0.14 -0.16 0.14 l-1.36 0 c-0.18 0 -0.22 -0.14 -0.18 -0.26 l0.64 -1.6 c-0.68 -0.22 -1.28 -0.9 -1.28 -1.7 c0 -0.98 0.82 -1.74 1.8 -1.74 z M74.8275 19.22 c0 0.08 0 0.18 -0.02 0.28 l-0.68 -0.68 c0.06 -0.14 0.08 -0.3 0.08 -0.46 l0 -0.04 l0.6 0.6 c0.02 0.1 0.02 0.2 0.02 0.3 z M74.6675 19.9 l-0.16 0.42 l-0.68 -0.66 l0.16 -0.44 l0.68 0.68 l0 0 z M74.3675 20.72 l-0.16 0.4 l-0.68 -0.66 l0.16 -0.4 z M74.0675 21.56 l-0.16 0.4 l-0.7 -0.68 l0.18 -0.42 z M73.6075 22.7 c0 0.02 0 0.02 -0.02 0.06 l-0.7 -0.7 c0.04 -0.04 0.08 -0.08 0.1 -0.16 l0.08 -0.22 l0.7 0.68 z M73.0875 22.82 l-0.56 0 l-0.62 -0.62 l0.56 0 z M93.9905 11.9 c1.52 0.72 3.5 1.86 3.5 3.92 c0 0.6 -0.1 1.76 -0.76 2.74 c-0.74 1.1 -1.9 1.64 -3.5 1.64 c-1.7 0 -3.68 -0.82 -4.3 -2.68 c-0.02 -0.06 0 -0.12 0.06 -0.16 l1.84 -1.58 c0.08 -0.06 0.2 -0.06 0.26 0.04 c0.04 0.1 0.12 0.26 0.22 0.46 c0.3 0.62 1.02 1.24 1.82 1.24 c0.62 0 1.46 -0.34 1.46 -1.3 c0 -0.92 -1.26 -1.44 -2.04 -1.74 c-0.9 -0.36 -1.82 -0.82 -2.6 -1.5 c-0.82 -0.76 -1.22 -1.6 -1.22 -2.6 c0 -2.5 2.3 -3.76 4.48 -3.76 c1.72 0 3 0.9 3.84 2.68 c0.04 0.08 0 0.18 -0.06 0.22 l-1.78 1.24 c-0.08 0.04 -0.12 0.04 -0.2 -0.06 c-0.68 -0.98 -1.28 -1.44 -2.08 -1.44 c-0.42 0 -1.4 0.16 -1.4 0.9 c0 0.9 1.66 1.36 2.46 1.74 z M97.1305 9.72 c0.12 -0.1 0.2 -0.24 0.18 -0.4 l0.34 0.36 c0.08 0.14 0.18 0.32 0.28 0.5 c0.02 0.08 0 0.18 -0.08 0.22 l-0.02 0.02 z M97.1905 10.88 l-0.7 -0.7 l0.32 -0.22 l0.7 0.7 z M96.51050000000001 11.32 l-0.7 -0.7 l0.32 -0.22 l0.7 0.7 z M93.8105 9.76 c0.18 0.12 0.34 0.26 0.52 0.44 c-0.02 0 -0.08 -0.02 -0.1 -0.02 z M92.4905 9.56 c0.14 -0.04 0.3 -0.06 0.52 -0.06 l0.62 0.66 c-0.14 0 -0.3 0.02 -0.48 0.06 z M91.8105 10 c0.02 -0.08 0.1 -0.2 0.28 -0.3 l0.7 0.7 c-0.14 0.08 -0.24 0.18 -0.28 0.3 z M97.7305 15.92 l0 -0.1 c0 -0.16 -0.02 -0.34 -0.04 -0.5 l0.54 0.56 c0.06 0.2 0.1 0.42 0.1 0.64 z M97.6305 16.96 c0.02 -0.18 0.06 -0.36 0.06 -0.5 l0.64 0.64 c0 0.16 -0.02 0.3 -0.04 0.5 z M98.0505 18.5 l-0.66 -0.68 c0.04 -0.14 0.1 -0.3 0.12 -0.42 l0.68 0.68 c-0.04 0.12 -0.08 0.28 -0.14 0.42 z M97.7105 19.26 l-0.7 -0.68 c0.08 -0.12 0.14 -0.26 0.2 -0.38 l0.7 0.7 c-0.08 0.12 -0.12 0.26 -0.2 0.36 z M97.2305 19.9 l-0.7 -0.7 c0.08 -0.1 0.18 -0.2 0.26 -0.3 l0.7 0.7 c-0.08 0.1 -0.18 0.2 -0.26 0.3 z M91.7105 14.4 c0.24 0.1 0.5 0.22 0.74 0.32 c0.08 0.04 0.16 0.06 0.24 0.08 l0.42 0.42 c-0.38 -0.14 -0.76 -0.32 -1.1 -0.54 z M96.6105 20.42 l-0.68 -0.7 c0.1 -0.06 0.2 -0.14 0.3 -0.24 l0.7 0.7 c-0.1 0.1 -0.2 0.18 -0.32 0.24 z M95.8505 20.8 l-0.66 -0.68 c0.14 -0.06 0.26 -0.12 0.4 -0.2 l0.66 0.7 c-0.12 0.08 -0.24 0.14 -0.4 0.18 z M92.01050000000001 16.8 c-0.16 -0.12 -0.26 -0.28 -0.36 -0.4 l0.28 0.28 l0.02 0.02 c0.04 0.02 0.04 0.06 0.06 0.1 z M94.9905 21.02 l-0.68 -0.64 c0.18 -0.06 0.32 -0.08 0.48 -0.12 l0.64 0.66 c-0.14 0.06 -0.3 0.08 -0.44 0.1 z M93.9105 21.08 l-0.62 -0.62 c0.2 0 0.36 0 0.52 -0.04 l0.64 0.66 l-0.54 0 z M92.5505 20.86 l-0.52 -0.54 c0.22 0.06 0.46 0.08 0.68 0.1 l0.58 0.6 c-0.24 -0.04 -0.48 -0.1 -0.74 -0.16 z M91.6305 20.48 c-0.3 -0.16 -0.58 -0.36 -0.82 -0.58 c0.12 0.08 0.28 0.16 0.42 0.2 z M95.29050000000001 11 l0.2 -0.12 l0.7 0.68 l-0.1 0.06 c-0.08 0.06 -0.1 0.08 -0.2 -0.02 z M103.272 20 c-0.1 0 -0.16 -0.08 -0.16 -0.18 l0 -12.84 c0 -0.1 0.06 -0.18 0.16 -0.18 l6.8 0 c0.1 0 0.18 0.08 0.18 0.18 l0 2.14 c0 0.1 -0.08 0.18 -0.18 0.18 l-4.32 0 l0 2.72 l3.36 0 c0.1 0 0.16 0.08 0.16 0.18 l0 2.18 c0 0.1 -0.06 0.18 -0.16 0.18 l-3.36 0 l0 2.94 l4.32 0 c0.1 0 0.18 0.08 0.18 0.18 l0 2.14 c0 0.1 -0.08 0.18 -0.18 0.18 l-6.8 0 z M109.532 14.36 l0.62 0.62 l0 0.28 c0 0.06 -0.08 0.14 -0.12 0.14 l-0.7 -0.68 c0.12 -0.06 0.2 -0.2 0.2 -0.36 z M110.512 19.82 l0.62 0.64 l0 0.24 c0 0.08 -0.08 0.16 -0.16 0.18 l-0.66 -0.7 c0.12 -0.06 0.2 -0.2 0.2 -0.36 z M109.532 13.8 l0 -0.58 l0.62 0.64 l0 0.56 z M106.012 10.28 l0 -0.58 l0.62 0.62 l0 0.58 z M106.652 15.42 l-0.62 -0.62 l0.58 0 l0.62 0.62 l-0.58 0 z M110.952 10.18 l-0.58 0 l-0.6 -0.62 l0.3 0 c0.08 0 0.16 -0.04 0.2 -0.06 z M105.932 20.88 l-0.56 0 l-0.62 -0.62 l0.58 0 z M103.632 20.26 l0.58 0 l0.6 0.62 l-0.56 0 z M110.512 19.28 l0 -0.58 l0.62 0.62 l0 0.56 z M108.272 14.8 l0.58 0 l0.6 0.62 l-0.54 0 z M109.252 10.18 l-0.6 -0.62 l0.56 0 l0.62 0.62 l-0.58 0 z M109.252 20.26 l0.56 0 l0.62 0.62 l-0.58 0 z M107.532 9.56 l0.54 0 l0.64 0.62 l-0.58 0 z M108.672 20.26 l0.64 0.62 l-0.58 0 l-0.6 -0.62 l0.54 0 z M107.732 14.8 l0.6 0.62 l-0.56 0 l-0.62 -0.62 l0.58 0 z M107.05199999999999 20.88 l-0.54 0 l-0.64 -0.62 l0.56 0 z M111.132 9.22 l0 0.56 l-0.62 -0.62 l0 -0.56 z M106.632 15.96 l0 0.54 l-0.62 -0.62 l0 -0.56 z M111.132 8.1 l0 0.56 l-0.62 -0.64 l0 -0.54 z M106.412 9.56 l0.54 0 l0.62 0.62 l-0.54 0 z M108.172 20.88 l-0.54 0 l-0.62 -0.62 l0.54 0 z M106.012 11.4 l0 -0.58 l0.62 0.64 l0 0.32 l-0.26 0 z M106.012 17 l0 -0.54 l0.62 0.62 l0 0.18 l-0.38 0 z M109.532 12.379999999999999 l0.58 0.58 c0.04 0.04 0.04 0.06 0.04 0.12 l0 0.22 l-0.62 -0.62 l0 -0.3 z M111.132 18.52 l0 0.24 l-0.62 -0.6 l0 -0.3 l0.56 0.54 c0.06 0.06 0.06 0.08 0.06 0.12 z M115.47349999999999 9.3 c-0.1 0 -0.18 -0.08 -0.18 -0.18 l0 -2.14 c0 -0.1 0.08 -0.18 0.18 -0.18 l8.34 0 c0.1 0 0.18 0.08 0.18 0.18 l0 2.14 c0 0.1 -0.08 0.18 -0.18 0.18 l-2.84 0 l0 10.52 c0 0.1 -0.08 0.18 -0.18 0.18 l-2.3 0 c-0.1 0 -0.18 -0.08 -0.18 -0.18 l0 -10.52 l-2.84 0 z M124.25349999999999 7.16 c0.2 0.2 0.44 0.42 0.56 0.56 c0.04 0.04 0.06 0.08 0.06 0.1 l0 0.04 l-0.62 -0.64 l0 -0.06 z M124.25349999999999 8.36 l0 -0.58 l0.62 0.62 l0 0.58 z M124.25349999999999 9.12 l0 -0.22 l0.62 0.62 l0 0.48 c0 0.02 0 0.06 -0.02 0.08 l-0.68 -0.7 c0.04 -0.08 0.08 -0.16 0.08 -0.26 z M123.2135 9.56 l0.56 0 l0.62 0.62 l-0.58 0 z M122.09349999999999 9.56 l0.56 0 l0.62 0.62 l-0.58 0 z M121.2135 9.56 l0.3 0 l0.64 0.62 l-0.3 0 l0 0.24 l-0.64 -0.62 l0 -0.24 z M121.8535 11 l0 0.56 l-0.64 -0.64 l0 -0.54 z M121.8535 12.120000000000001 l0 0.56 l-0.64 -0.62 l0 -0.56 z M121.8535 13.219999999999999 l0 0.58 l-0.64 -0.62 l0 -0.56 z M118.0735 9.56 l0 0.46 l-0.48 -0.46 l0.48 0 z M117.09349999999999 10.18 l-0.62 -0.62 l0.54 0 l0.64 0.62 l-0.56 0 z M121.8535 14.36 l0 0.56 l-0.64 -0.62 l0 -0.54 z M121.8535 15.48 l0 0.58 l-0.64 -0.64 l0 -0.54 z M115.9135 9.56 l0.6 0.62 l-0.16 0 c-0.06 0 -0.1 -0.02 -0.14 -0.06 l-0.56 -0.56 l0.26 0 z M121.8535 16.6 l0 0.58 l-0.64 -0.62 l0 -0.58 z M121.8535 17.72 l0 0.56 l-0.64 -0.6 l0 -0.58 z M121.2135 18.8 l0 -0.58 l0.64 0.64 l0 0.54 z M121.8535 19.98 l0 0.54 l-0.64 -0.62 l0 -0.54 z M121.61349999999999 20.88 l-0.56 0 l-0.6 -0.62 l0.36 0 c0.06 0 0.1 0 0.16 -0.04 z M120.4935 20.88 l-0.54 0 l-0.64 -0.62 l0.56 0 z M118.67349999999999 20.26 l0.08 0 l0.62 0.62 c-0.06 0 -0.1 -0.02 -0.12 -0.06 z M130.335 16.66 c0.94 0 1.78 0.72 1.78 1.7 c0 0.16 -0.06 0.36 -0.1 0.5 l-1.14 2.96 c-0.02 0.08 -0.1 0.14 -0.16 0.14 l-1.36 0 c-0.18 0 -0.22 -0.14 -0.18 -0.26 l0.64 -1.6 c-0.68 -0.22 -1.28 -0.9 -1.28 -1.7 c0 -0.98 0.82 -1.74 1.8 -1.74 z M132.975 19.22 c0 0.08 0 0.18 -0.02 0.28 l-0.68 -0.68 c0.06 -0.14 0.08 -0.3 0.08 -0.46 l0 -0.04 l0.6 0.6 c0.02 0.1 0.02 0.2 0.02 0.3 z M132.815 19.9 l-0.16 0.42 l-0.68 -0.66 l0.16 -0.44 l0.68 0.68 l0 0 z M132.515 20.72 l-0.16 0.4 l-0.68 -0.66 l0.16 -0.4 z M132.215 21.56 l-0.16 0.4 l-0.7 -0.68 l0.18 -0.42 z M131.755 22.7 c0 0.02 0 0.02 -0.02 0.06 l-0.7 -0.7 c0.04 -0.04 0.08 -0.08 0.1 -0.16 l0.08 -0.22 l0.7 0.68 z M131.23499999999999 22.82 l-0.56 0 l-0.62 -0.62 l0.56 0 z M161.83799999999997 6.800000000000001 c0.12 0 0.2 0.1 0.16 0.22 l-3.44 12.86 c-0.02 0.08 -0.1 0.12 -0.18 0.12 l-2.2 0 c-0.08 0 -0.14 -0.04 -0.18 -0.12 l-1.36 -5.06 l-1.84 5.08 c-0.02 0.06 -0.06 0.1 -0.14 0.1 l-2.12 0 c-0.08 0 -0.14 -0.04 -0.16 -0.12 l-3.42 -12.88 c-0.02 -0.1 0.04 -0.2 0.18 -0.2 l2.3 0 c0.06 0 0.12 0.06 0.14 0.12 l2.22 8.48 l1.66 -5.02 l-0.92 -3.36 c-0.04 -0.12 0.06 -0.22 0.16 -0.22 l2.48 0 c0.08 0 0.12 0.02 0.16 0.12 l1.84 8.16 l2.2 -8.16 c0.02 -0.06 0.08 -0.12 0.16 -0.12 l2.3 0 z M162.83799999999997 8 l-0.14 0.42 l-0.64 -0.64 l0.1 -0.46 z M162.57799999999997 8.88 l-0.1 0.44 l-0.68 -0.66 l0.14 -0.44 z M162.35799999999998 9.76 l-0.12 0.44 l-0.66 -0.64 l0.1 -0.46 z M162.09799999999998 10.66 l-0.1 0.44 l-0.66 -0.68 l0.12 -0.44 z M161.19799999999998 10.88 l0.68 0.64 l-0.12 0.46 l-0.66 -0.68 z M161.63799999999998 12.42 l-0.1 0.44 l-0.68 -0.66 l0.12 -0.44 z M161.39799999999997 13.3 l-0.12 0.46 l-0.64 -0.68 l0.1 -0.46 z M156.45799999999997 8.9 l-0.56 -0.52 l-0.14 -0.72 l0.52 0.52 z M161.158 14.18 l-0.1 0.44 l-0.68 -0.64 l0.12 -0.46 z M156.59799999999998 9.62 l0.18 0.74 l-0.54 -0.54 l-0.16 -0.72 z M160.938 15.08 l-0.14 0.42 l-0.64 -0.64 l0.1 -0.46 z M156.39799999999997 10.56 l0.54 0.52 l0.16 0.72 l-0.52 -0.52 z M160.67799999999997 15.96 l-0.1 0.44 l-0.68 -0.68 l0.14 -0.42 z M156.89799999999997 12.719999999999999 l-0.16 -0.72 l0.54 0.52 l0.16 0.68 l-0.04 0.02 z M157.278 13.68 l-0.08 0.34 l-0.14 -0.56 z M160.45799999999997 16.82 l-0.12 0.46 l-0.66 -0.66 l0.1 -0.44 z M149.97799999999998 7.5 l0.52 0.52 l0.2 0.76 l-0.52 -0.52 z M159.438 17.5 l0.12 -0.44 l0.64 0.66 l-0.1 0.46 z M159.97799999999998 18.6 l-0.12 0.46 l-0.66 -0.68 l0.1 -0.42 z M151.09799999999998 10.3 l-0.52 -0.52 l-0.2 -0.76 l0.52 0.5 z M151.498 11.82 l-0.52 -0.52 l-0.2 -0.74 l0.52 0.5 z M158.95799999999997 19.28 l0.12 -0.46 l0.66 0.68 l-0.1 0.42 z M159.39799999999997 20.76 c0 0.02 -0.02 0.04 -0.04 0.04 l-0.68 -0.68 c0.06 -0.04 0.08 -0.06 0.1 -0.16 l0.06 -0.24 l0.66 0.66 z M151.17799999999997 12.059999999999999 l0.52 0.52 l0.2 0.78 l-0.52 -0.54 z M154.57799999999997 15.66 l0.16 0.52 l-0.24 -0.26 z M154.97799999999998 17.1 l-0.1 0.32 l-0.68 -0.66 l0.16 -0.4 l0.58 0.6 z M157.67799999999997 20.26 l0.58 0 l0.62 0.62 l-0.58 0 z M151.85799999999998 14.42 l-0.08 -0.06 l-0.2 -0.78 l0.42 0.42 z M157.17799999999997 20.88 l-0.6 -0.62 l0.56 0 l0.62 0.62 l-0.58 0 z M154.73799999999997 17.86 l-0.16 0.4 l-0.68 -0.68 l0.16 -0.4 z M154.438 18.68 l-0.16 0.4 l-0.68 -0.68 l0.16 -0.4 z M154.13799999999998 19.5 l-0.16 0.4 l-0.68 -0.68 l0.16 -0.4 z M153.838 20.32 l-0.16 0.4 l-0.68 -0.66 c0 -0.04 0.04 -0.06 0.04 -0.08 l0.12 -0.32 z M152.63799999999998 20.26 l0.62 0.62 l-0.56 0 l-0.62 -0.62 l0.56 0 z M152.13799999999998 20.88 l-0.56 0 l-0.62 -0.62 l0.58 0 z M167.89949999999996 20 c-0.1 0 -0.16 -0.08 -0.16 -0.18 l0 -12.84 c0 -0.1 0.06 -0.18 0.16 -0.18 l6.8 0 c0.1 0 0.18 0.08 0.18 0.18 l0 2.14 c0 0.1 -0.08 0.18 -0.18 0.18 l-4.32 0 l0 2.72 l3.36 0 c0.1 0 0.16 0.08 0.16 0.18 l0 2.18 c0 0.1 -0.06 0.18 -0.16 0.18 l-3.36 0 l0 2.94 l4.32 0 c0.1 0 0.18 0.08 0.18 0.18 l0 2.14 c0 0.1 -0.08 0.18 -0.18 0.18 l-6.8 0 z M174.15949999999998 14.36 l0.62 0.62 l0 0.28 c0 0.06 -0.08 0.14 -0.12 0.14 l-0.7 -0.68 c0.12 -0.06 0.2 -0.2 0.2 -0.36 z M175.13949999999997 19.82 l0.62 0.64 l0 0.24 c0 0.08 -0.08 0.16 -0.16 0.18 l-0.66 -0.7 c0.12 -0.06 0.2 -0.2 0.2 -0.36 z M174.15949999999998 13.8 l0 -0.58 l0.62 0.64 l0 0.56 z M170.63949999999997 10.28 l0 -0.58 l0.62 0.62 l0 0.58 z M171.27949999999996 15.42 l-0.62 -0.62 l0.58 0 l0.62 0.62 l-0.58 0 z M175.57949999999997 10.18 l-0.58 0 l-0.6 -0.62 l0.3 0 c0.08 0 0.16 -0.04 0.2 -0.06 z M170.55949999999996 20.88 l-0.56 0 l-0.62 -0.62 l0.58 0 z M168.25949999999997 20.26 l0.58 0 l0.6 0.62 l-0.56 0 z M175.13949999999997 19.28 l0 -0.58 l0.62 0.62 l0 0.56 z M172.89949999999996 14.8 l0.58 0 l0.6 0.62 l-0.54 0 z M173.87949999999998 10.18 l-0.6 -0.62 l0.56 0 l0.62 0.62 l-0.58 0 z M173.87949999999998 20.26 l0.56 0 l0.62 0.62 l-0.58 0 z M172.15949999999998 9.56 l0.54 0 l0.64 0.62 l-0.58 0 z M173.29949999999997 20.26 l0.64 0.62 l-0.58 0 l-0.6 -0.62 l0.54 0 z M172.35949999999997 14.8 l0.6 0.62 l-0.56 0 l-0.62 -0.62 l0.58 0 z M171.67949999999996 20.88 l-0.54 0 l-0.64 -0.62 l0.56 0 z M175.75949999999997 9.22 l0 0.56 l-0.62 -0.62 l0 -0.56 z M171.25949999999997 15.96 l0 0.54 l-0.62 -0.62 l0 -0.56 z M175.75949999999997 8.1 l0 0.56 l-0.62 -0.64 l0 -0.54 z M171.03949999999998 9.56 l0.54 0 l0.62 0.62 l-0.54 0 z M172.79949999999997 20.88 l-0.54 0 l-0.62 -0.62 l0.54 0 z M170.63949999999997 11.4 l0 -0.58 l0.62 0.64 l0 0.32 l-0.26 0 z M170.63949999999997 17 l0 -0.54 l0.62 0.62 l0 0.18 l-0.38 0 z M174.15949999999998 12.379999999999999 l0.58 0.58 c0.04 0.04 0.04 0.06 0.04 0.12 l0 0.22 l-0.62 -0.62 l0 -0.3 z M175.75949999999997 18.52 l0 0.24 l-0.62 -0.6 l0 -0.3 l0.56 0.54 c0.06 0.06 0.06 0.08 0.06 0.12 z M188.42099999999996 10.22 c0 0.78 -0.12 1.46 -0.4 1.96 c0.76 0.72 1.08 1.88 1.08 3.5 c0 1.72 -0.36 2.94 -1.18 3.58 c-0.78 0.62 -1.88 0.74 -2.98 0.74 l-3.9 0 c-0.1 0 -0.16 -0.08 -0.16 -0.18 l0 -12.84 c0 -0.1 0.06 -0.18 0.16 -0.18 l3.2 0 c1.08 0 2.2 0.08 2.96 0.58 c0.94 0.6 1.22 1.68 1.22 2.84 z M184.28099999999998 17.38 c1.1 0 2.14 -0.48 2.14 -1.76 c0 -0.96 -0.68 -1.72 -1.7 -1.72 l-1.2 0 l0 3.48 l0.76 0 z M183.521 9.42 l0 1.8 l1.22 0 c0.64 0 0.98 -0.2 0.98 -0.9 s-0.52 -0.9 -1.4 -0.9 l-0.8 0 z M189.581 19.08 l-0.68 -0.68 c0.08 -0.14 0.12 -0.28 0.14 -0.42 l0.68 0.68 z M189.38099999999997 19.46 c-0.06 0.1 -0.16 0.22 -0.24 0.32 l-0.66 -0.7 c0.1 -0.1 0.16 -0.22 0.22 -0.32 z M188.18099999999998 19.38 l0.7 0.68 c-0.1 0.12 -0.24 0.2 -0.34 0.24 l-0.66 -0.7 c0.12 -0.04 0.2 -0.12 0.3 -0.22 z M187.10099999999997 19.98 c0.14 -0.06 0.28 -0.1 0.4 -0.18 l0.68 0.68 c-0.14 0.08 -0.26 0.12 -0.4 0.14 z M188.98099999999997 12.879999999999999 l-0.66 -0.76 c0.06 -0.1 0.1 -0.22 0.12 -0.34 l0.68 0.68 c-0.02 0.14 -0.08 0.26 -0.14 0.42 z M186.82099999999997 20.82 l-0.62 -0.64 c0.14 0 0.3 -0.02 0.48 -0.08 l0.64 0.66 c-0.14 0.04 -0.3 0.06 -0.5 0.06 z M188.581 11.36 l0.06 -0.5 l0.64 0.62 c0 0.18 -0.04 0.34 -0.06 0.5 z M189.32099999999997 16.58 c0.02 -0.16 0.02 -0.36 0.02 -0.56 l0.64 0.64 c0 0.2 -0.04 0.36 -0.04 0.54 z M189.82099999999997 18.2 l-0.64 -0.64 c0.04 -0.18 0.04 -0.3 0.06 -0.48 l0.66 0.64 z M185.14099999999996 20.26 c0.18 0 0.36 0 0.54 -0.04 l0.62 0.64 c-0.16 0.02 -0.32 0.02 -0.56 0.02 z M184.40099999999998 15.58 l0 0.54 l-0.62 -0.6 l0 -0.56 z M189.24099999999999 10.32 c0.04 0.2 0.06 0.4 0.06 0.6 l-0.62 -0.6 c0 -0.26 0 -0.42 -0.04 -0.6 z M184.64099999999996 14.16 c0.3 0 0.5 0.04 0.68 0.1 l0.52 0.52 l-0.56 0 z M181.78099999999998 20.26 l0.54 0 l0.62 0.62 l-0.54 0 z M183.521 20.88 l-0.62 -0.62 l0.54 0 l0.64 0.62 l-0.56 0 z M184.40099999999998 10.3 l0 0.22 l-0.62 -0.62 l0 -0.22 l0.32 0 l0.62 0.62 l-0.32 0 z M184.581 20.26 l0.62 0.62 l-0.56 0 l-0.62 -0.62 l0.56 0 z M184.40099999999998 14.780000000000001 l0 0.22 l-0.62 -0.6 l0 -0.24 l0.32 0 l0.6 0.62 l-0.3 0 z M189.34099999999998 15.48 c0 -0.2 0 -0.38 -0.02 -0.58 l0.6 0.58 c0 0.2 0.02 0.4 0.02 0.6 z M183.78099999999998 16.62 l0 -0.54 l0.62 0.62 l0 0.42 l-0.12 0 z M189.521 13.98 c0.12 0.24 0.2 0.52 0.28 0.82 l-0.56 -0.54 c-0.02 -0.26 -0.06 -0.48 -0.14 -0.74 z M184.68099999999998 9.7 c0.7 0.06 0.8 0.32 0.8 0.6 l-0.2 0 z M188.40099999999998 8.5 c0.32 0.3 0.54 0.68 0.7 1.1 l-0.52 -0.5 c-0.06 -0.22 -0.1 -0.42 -0.18 -0.6 z M183.78099999999998 10.98 l0 -0.5 l0.5 0.5 l-0.5 0 z M197.54249999999996 16.06 l-2.2 0 c-0.1 0 -0.18 -0.08 -0.18 -0.18 l-0.54 -8.92 c0 -0.16 0.1 -0.18 0.18 -0.18 l3.26 0 c0.14 0 0.18 0.1 0.18 0.18 l-0.52 8.92 c0 0.1 -0.08 0.18 -0.18 0.18 z M196.52249999999998 16.66 c1 0 1.78 0.76 1.78 1.74 s-0.78 1.78 -1.78 1.78 c-0.96 0 -1.72 -0.8 -1.72 -1.78 s0.76 -1.74 1.72 -1.74 z M199.10249999999996 7.82 l0 0.28 l-0.66 -0.64 l0.02 -0.34 l0.58 0.58 c0.06 0.06 0.06 0.08 0.06 0.12 z M198.40249999999997 8.52 l0.02 -0.52 l0.64 0.62 l-0.04 0.54 z M198.32249999999996 9.58 l0.04 -0.52 l0.64 0.64 l-0.04 0.52 z M198.26249999999996 10.66 l0.04 -0.56 l0.64 0.66 l-0.04 0.52 z M198.86249999999998 11.8 l-0.02 0.56 l-0.64 -0.66 l0.04 -0.52 z M198.82249999999996 12.879999999999999 l-0.06 0.52 l-0.62 -0.64 l0.02 -0.54 z M198.74249999999998 13.92 l-0.02 0.54 l-0.66 -0.64 l0.06 -0.52 z M198.7025 15 l-0.06 0.52 l-0.62 -0.64 l0.02 -0.52 z M198.62249999999997 16.06 l-0.02 0.52 l-0.66 -0.62 c0 -0.04 0 -0.06 0.06 -0.56 z M197.90249999999997 16.92 c-0.1 -0.06 -0.2 -0.2 -0.3 -0.22 l-0.4 -0.4 l0.34 0 c0.06 0 0.12 -0.02 0.18 -0.04 l0.64 0.66 l-0.46 0 z M199.14249999999998 19.38 l-0.64 -0.66 c0.02 -0.1 0.04 -0.2 0.04 -0.32 c0 -0.08 -0.02 -0.14 -0.02 -0.2 l0.54 0.56 c0.06 0.16 0.08 0.34 0.08 0.52 l0 0.1 z M196.74249999999998 16.42 c-0.22 -0.04 -0.38 -0.04 -0.54 0 l-0.14 -0.12 l0.56 0 z M198.2025 19.56 c0.06 -0.14 0.12 -0.26 0.16 -0.38 l0.7 0.68 c-0.04 0.14 -0.12 0.26 -0.2 0.36 z M197.62249999999997 20.1 c0.1 -0.08 0.22 -0.14 0.3 -0.24 l0.7 0.7 c-0.08 0.1 -0.2 0.16 -0.3 0.24 z M197.92249999999999 20.98 c-0.16 0.04 -0.3 0.08 -0.48 0.08 l-0.64 -0.66 c0.16 -0.02 0.32 -0.04 0.44 -0.1 z M196.76249999999996 20.96 c-0.26 -0.14 -0.56 -0.36 -0.76 -0.6 c0.06 0.02 0.16 0.04 0.24 0.04 z"></path></g>
			</g>
		</svg>
	