<?xml version="1.0" encoding="UTF-8"?>
<svg id="Layer_2" data-name="Layer 2" xmlns="http://www.w3.org/2000/svg" viewBox="0 0 150 150">
  <defs>
    <style>
      .cls-1 {
        fill: #82b3b6;
      }

      .cls-1, .cls-2, .cls-3 {
        stroke-width: 0px;
      }

      .cls-2 {
        fill: #fff;
      }

      .cls-3 {
        fill: #121e2d;
      }
    </style>
  </defs>
  <g id="Layer_1-2" data-name="Layer 1">
    <g>
      <rect class="cls-1" width="150" height="150"/>
      <path class="cls-2" d="M73.38,58.86h-10.62v-2.46c0-2.49-.57-4.65-1.72-6.47-1.14-1.82-3.07-2.73-5.77-2.73-1.46,0-2.64.29-3.54.86-.9.57-1.63,1.28-2.19,2.14-.56.93-.94,1.98-1.14,3.15-.21,1.18-.31,2.41-.31,3.69,0,1.5.05,2.74.16,3.74.1,1,.36,1.89.78,2.67.42.78,1.02,1.46,1.82,2.03.8.57,1.89,1.14,3.28,1.71l8.12,3.31c2.36.93,4.27,2.01,5.72,3.26,1.46,1.25,2.6,2.69,3.43,4.33.76,1.71,1.28,3.65,1.56,5.83.28,2.18.42,4.65.42,7.43,0,3.21-.31,6.18-.94,8.93-.63,2.74-1.63,5.08-3.02,7-1.46,2-3.37,3.56-5.73,4.7-2.36,1.14-5.24,1.71-8.64,1.71-2.57,0-4.96-.46-7.18-1.39-2.22-.93-4.13-2.21-5.72-3.85-1.6-1.64-2.86-3.55-3.8-5.72-.94-2.17-1.41-4.54-1.41-7.11v-4.06h10.62v3.42c0,2,.57,3.79,1.72,5.4s3.07,2.41,5.78,2.41c1.8,0,3.21-.27,4.21-.8,1.01-.53,1.79-1.3,2.34-2.3.55-1,.89-2.19.99-3.58.1-1.39.16-2.94.16-4.65,0-2-.07-3.64-.21-4.92-.14-1.28-.42-2.31-.83-3.1-.49-.78-1.13-1.43-1.93-1.92-.8-.5-1.86-1.03-3.17-1.6l-7.6-3.21c-4.58-1.92-7.65-4.47-9.21-7.64s-2.34-7.14-2.34-11.92c0-2.85.38-5.56,1.14-8.12.76-2.57,1.91-4.77,3.43-6.63,1.46-1.85,3.31-3.33,5.57-4.44,2.25-1.1,4.94-1.66,8.06-1.66,2.64,0,5.05.5,7.23,1.5,2.19,1,4.07,2.32,5.67,3.96,3.19,3.42,4.79,7.34,4.79,11.76v5.35Z"/>
      <path class="cls-3" d="M81.29,113.06V36.94h15.92c2.91,0,5.48.39,7.7,1.18,2.22.79,4.23,2.18,6.04,4.17,1.8,2,3.05,4.33,3.75,7,.69,2.67,1.04,6.29,1.04,10.85,0,3.42-.19,6.31-.57,8.66s-1.2,4.56-2.44,6.63c-1.46,2.5-3.4,4.44-5.83,5.83-2.43,1.39-5.62,2.08-9.57,2.08h-5.41v29.72h-10.62ZM91.91,47.2v25.87h5.1c2.15,0,3.81-.32,5-.96,1.18-.64,2.05-1.53,2.6-2.67.55-1.07.89-2.39.99-3.96.1-1.57.16-3.31.16-5.24,0-1.78-.04-3.47-.1-5.08s-.38-3.01-.94-4.22c-.56-1.21-1.39-2.14-2.5-2.78-1.11-.64-2.71-.96-4.79-.96h-5.52Z"/>
    </g>
  </g>
</svg>