<?xml version="1.0" encoding="UTF-8"?>
<svg id="Layer_2" data-name="Layer 2" xmlns="http://www.w3.org/2000/svg" viewBox="0 0 509.1 52.13">
  <defs>
    <style>
      .cls-1 {
        fill: #415d43;
      }

      .cls-1, .cls-2 {
        stroke-width: 0px;
      }

      .cls-2 {
        fill: #121e2d;
      }
    </style>
  </defs>
  <g id="Layer_1-2" data-name="Layer 1">
    <path class="cls-1" d="M25.2,15.19h-7.34v-1.66c0-1.68-.4-3.13-1.19-4.36s-2.12-1.84-4-1.84c-1.01,0-1.82.19-2.45.58-.62.38-1.13.86-1.51,1.44-.38.62-.65,1.33-.79,2.12s-.22,1.62-.22,2.48c0,1.01.04,1.85.11,2.52.07.67.25,1.27.54,1.8.29.53.71.98,1.26,1.37.55.38,1.31.77,2.27,1.15l5.62,2.23c1.63.62,2.95,1.36,3.96,2.2,1.01.84,1.8,1.81,2.38,2.92.53,1.15.89,2.46,1.08,3.92.19,1.46.29,3.13.29,5,0,2.16-.22,4.17-.65,6.01-.43,1.85-1.13,3.42-2.09,4.72-1.01,1.34-2.33,2.4-3.96,3.17-1.63.77-3.62,1.15-5.98,1.15-1.78,0-3.43-.31-4.97-.94-1.54-.62-2.86-1.49-3.96-2.59-1.1-1.1-1.98-2.39-2.63-3.85-.65-1.46-.97-3.06-.97-4.79v-2.74h7.34v2.3c0,1.34.4,2.56,1.19,3.64.79,1.08,2.12,1.62,4,1.62,1.25,0,2.22-.18,2.92-.54.7-.36,1.24-.88,1.62-1.55.38-.67.61-1.48.68-2.41.07-.94.11-1.98.11-3.13,0-1.34-.05-2.45-.14-3.31-.1-.86-.29-1.56-.58-2.09-.34-.53-.78-.96-1.33-1.3-.55-.33-1.28-.69-2.2-1.08l-5.26-2.16c-3.17-1.3-5.29-3.01-6.37-5.15-1.08-2.14-1.62-4.81-1.62-8.03,0-1.92.26-3.74.79-5.47.53-1.73,1.32-3.22,2.38-4.46,1.01-1.25,2.29-2.24,3.85-2.99,1.56-.74,3.42-1.12,5.58-1.12,1.82,0,3.49.34,5,1.01,1.51.67,2.82,1.56,3.92,2.66,2.21,2.3,3.31,4.94,3.31,7.92v3.6Z"/>
    <path class="cls-1" d="M27.36,51.7L38.81.43h6.12l11.45,51.26h-7.34l-2.16-11.02h-10.01l-2.16,11.02h-7.34ZM45.5,33.77l-3.6-18.58h-.14l-3.6,18.58h7.34Z"/>
    <path class="cls-1" d="M59.69,51.7V.43h7.06l11.09,30.89h.14V.43h7.34v51.26h-6.91l-11.23-30.82h-.14v30.82h-7.34Z"/>
    <path class="cls-1" d="M91.94,51.7V.43h10.87c4.22,0,7.43,1.15,9.61,3.46,2.18,2.3,3.28,5.57,3.28,9.79v23.98c0,4.8-1.16,8.34-3.49,10.62-2.33,2.28-5.68,3.42-10.04,3.42h-10.22ZM99.29,7.34v37.44h3.38c2.06,0,3.53-.52,4.39-1.55.86-1.03,1.3-2.65,1.3-4.86V13.68c0-2.02-.41-3.58-1.22-4.68-.82-1.1-2.3-1.66-4.46-1.66h-3.38Z"/>
    <path class="cls-1" d="M159.84.43l-7.63,51.26h-6.91l-5.62-33.26h-.14l-5.54,33.26h-6.91L119.45.43h7.78l3.67,32.54h.14L136.8.43h5.62l5.98,33.34h.14L152.06.43h7.78Z"/>
    <path class="cls-1" d="M164.66,51.7V.43h7.34v51.26h-7.34Z"/>
    <path class="cls-1" d="M202.46,37.08v3.17c0,1.58-.3,3.08-.9,4.5-.6,1.42-1.43,2.68-2.48,3.78-1.06,1.1-2.29,1.98-3.71,2.63-1.42.65-2.94.97-4.57.97-1.39,0-2.81-.19-4.25-.58s-2.74-1.06-3.89-2.02c-1.15-.96-2.1-2.2-2.84-3.71-.75-1.51-1.12-3.44-1.12-5.8V11.81c0-1.68.29-3.24.86-4.68.58-1.44,1.39-2.69,2.45-3.74s2.32-1.88,3.78-2.48c1.46-.6,3.08-.9,4.86-.9,3.46,0,6.26,1.13,8.42,3.38,1.06,1.1,1.88,2.41,2.48,3.92.6,1.51.9,3.16.9,4.93v2.88h-7.34v-2.45c0-1.44-.41-2.69-1.22-3.74-.82-1.06-1.92-1.58-3.31-1.58-1.82,0-3.04.56-3.64,1.69-.6,1.13-.9,2.56-.9,4.28v26.21c0,1.49.32,2.74.97,3.74.65,1.01,1.81,1.51,3.49,1.51.48,0,1-.08,1.55-.25.55-.17,1.07-.44,1.55-.83.43-.38.79-.91,1.08-1.58.29-.67.43-1.51.43-2.52v-2.52h7.34Z"/>
    <path class="cls-1" d="M208.44,51.7V.43h7.34v21.96h9.07V.43h7.34v51.26h-7.34v-22.82h-9.07v22.82h-7.34Z"/>
    <path class="cls-2" d="M239.11,51.7V.43h11.02c2.02,0,3.79.26,5.33.79,1.54.53,2.93,1.46,4.18,2.81,1.25,1.34,2.11,2.92,2.59,4.72.48,1.8.72,4.24.72,7.31,0,2.3-.13,4.25-.4,5.83-.26,1.58-.83,3.07-1.69,4.46-1.01,1.68-2.35,2.99-4.03,3.92-1.68.94-3.89,1.4-6.62,1.4h-3.74v20.02h-7.34ZM246.45,7.34v17.42h3.53c1.49,0,2.64-.22,3.46-.65.82-.43,1.42-1.03,1.8-1.8.38-.72.61-1.61.68-2.66.07-1.06.11-2.23.11-3.53,0-1.2-.02-2.34-.07-3.42-.05-1.08-.26-2.03-.65-2.84-.38-.82-.96-1.44-1.73-1.87-.77-.43-1.87-.65-3.31-.65h-3.82Z"/>
    <path class="cls-2" d="M262.44,51.7L273.88.43h6.12l11.45,51.26h-7.34l-2.16-11.02h-10.01l-2.16,11.02h-7.34ZM280.58,33.77l-3.6-18.58h-.14l-3.6,18.58h7.34Z"/>
    <path class="cls-2" d="M294.76,51.7V.43h7.06l11.09,30.89h.14V.43h7.34v51.26h-6.91l-11.23-30.82h-.14v30.82h-7.34Z"/>
    <path class="cls-2" d="M327.02,51.7V.43h21.89v6.91h-14.54v15.05h12.67v6.91h-12.67v15.05h14.54v7.34h-21.89Z"/>
    <path class="cls-2" d="M353.66,51.7V.43h7.34v43.92h14.54v7.34h-21.89Z"/>
    <path class="cls-2" d="M380.3,51.7V.43h21.89v6.91h-14.54v15.05h12.67v6.91h-12.67v15.05h14.54v7.34h-21.89Z"/>
    <path class="cls-2" d="M406.94,51.7V.43h11.81c8.64,0,12.96,5.02,12.96,15.05,0,3.02-.47,5.59-1.4,7.7-.94,2.11-2.58,3.82-4.93,5.11l7.92,23.4h-7.78l-6.84-21.89h-4.39v21.89h-7.34ZM414.28,7.34v15.98h4.18c1.3,0,2.33-.18,3.1-.54.77-.36,1.37-.88,1.8-1.55.38-.67.65-1.5.79-2.48.14-.98.22-2.12.22-3.42s-.07-2.44-.22-3.42c-.14-.98-.43-1.84-.86-2.56-.91-1.34-2.64-2.02-5.18-2.02h-3.82Z"/>
    <path class="cls-2" d="M437.18,51.7v-7.34h7.34v7.34h-7.34Z"/>
    <path class="cls-2" d="M451,51.7V.43h10.87c4.22,0,7.43,1.15,9.61,3.46,2.18,2.3,3.28,5.57,3.28,9.79v23.98c0,4.8-1.16,8.34-3.49,10.62-2.33,2.28-5.68,3.42-10.04,3.42h-10.22ZM458.35,7.34v37.44h3.38c2.06,0,3.53-.52,4.39-1.55.86-1.03,1.3-2.65,1.3-4.86V13.68c0-2.02-.41-3.58-1.22-4.68-.82-1.1-2.3-1.66-4.46-1.66h-3.38Z"/>
    <path class="cls-2" d="M481.67,51.7V.43h7.34v23.4h.14L499.89.43h7.34l-10.01,20.52,11.88,30.74h-7.78l-8.35-22.75-3.96,7.42v15.34h-7.34Z"/>
  </g>
</svg>